<?xml version="1.0" encoding="UTF-8"?>
<svg id="Layer_2" data-name="Layer 2" xmlns="http://www.w3.org/2000/svg" viewBox="0 0 64.96 58.54">
  <defs>
    <style>
      .cls-1, .cls-2 {
        fill: #0d38d3;
      }

      .cls-2 {
        fill-rule: evenodd;
      }
    </style>
  </defs>
  <g id="Layer_1-2" data-name="Layer 1">
    <g>
      <path class="cls-1" d="M32.48,58.54c-9.41,0-17.25-3.02-23.32-8.98C3.08,43.6,0,35.09,0,24.27V2.97C0,1.28,1.37,0,3.05,0h58.85c1.69,0,3.06,1.28,3.06,2.97v21.3c0,10.81-3.08,19.32-9.17,25.29-6.06,5.96-13.9,8.98-23.31,8.98ZM6.03,6.03v18.24c0,9.11,2.51,16.16,7.38,20.93,4.95,4.86,11.19,7.23,19.05,7.23s14.13-2.37,19.07-7.23c4.87-4.78,7.39-11.82,7.39-20.93V6.03H6.03Z"/>
      <g id="keHaYq">
        <path class="cls-2" d="M17.3,25.64c-.91-.7-3.64-4.91.37-7.41,3.25-2.03,6.34,2.35,6.91,3.64,2.95.38,14.67.62,17.53,0,.16-.03.65-5.07,5.17-3.31,4.36,1.69.6,6.99-.49,7.01,3.73,1.13,3.07,6.84.66,7.56-4.79,1.43-6.17-3.72-6.37-3.74-2.18-.23-16.31-.22-17.71,0-.26.04-1.99,5.71-6.22,3.41-2.93-1.6-1.78-5.45-.05-7,.06-.05.11-.1.19-.16Z"/>
      </g>
    </g>
  </g>
</svg>